/* XPM */
static char *dummy[]={
"59 87 239 2",
"Qt c None",
"aD c #030100",
"bj c #0a1404",
".L c #0b0201",
"bB c #0b0f11",
"al c #0c0805",
"aW c #140202",
"ay c #14050c",
"bE c #140b0b",
"#x c #140c02",
"bH c #14140b",
"bo c #141b02",
"am c #151302",
"a3 c #151909",
"a8 c #182f09",
"aN c #192609",
"bt c #1a1717",
"aO c #1b0402",
"#w c #1b040b",
"#V c #1b0a14",
"#4 c #1b1b03",
"#v c #1b2515",
"aA c #1c0c03",
"aB c #1c0d0b",
".O c #1c1303",
"aY c #1c130c",
"au c #1c1413",
"bA c #1c1b0c",
"bf c #1c2304",
".n c #1d1b13",
"#j c #220c04",
"a. c #220c0c",
"#S c #221403",
"aI c #23140b",
"#U c #231b0c",
"bn c #240c13",
"bu c #241413",
".V c #241b03",
"#0 c #241c13",
"a6 c #241c1c",
"an c #24230c",
"#i c #242414",
"bQ c #242c1c",
"by c #25151b",
"bC c #25231b",
".g c #252b14",
"aH c #260609",
"ad c #260916",
"#1 c #262706",
"bi c #281923",
"bI c #282829",
"#F c #283818",
"aS c #29350a",
"#X c #2a3824",
"#t c #2b130c",
"br c #2b1413",
"bq c #2b1905",
".h c #2b1c0b",
"#l c #2b1c14",
"ai c #2b230c",
"az c #2b2313",
"aM c #2b2c23",
"bh c #2b3034",
".o c #2b4419",
".E c #2b4727",
"#T c #2c1c1b",
"ah c #2c2322",
"#R c #2c241c",
"aV c #2c2b0c",
"#H c #2c2b14",
"a7 c #2c2c1b",
"ak c #2c3314",
".W c #2c331b",
"#E c #2d3323",
"bK c #311931",
"#I c #31240c",
"aq c #331d13",
"aj c #332313",
"bM c #33241b",
"bw c #332422",
".m c #332c1c",
"#s c #333b1c",
"aG c #341b24",
"aX c #342c0c",
".f c #342c14",
"bl c #342c23",
".t c #34331c",
"#P c #343323",
"a4 c #34342b",
"aJ c #343b2b",
"as c #351a0a",
"#G c #351b19",
"bG c #353314",
"aQ c #353c23",
"bL c #372807",
"aw c #37292b",
"aZ c #372b34",
"bg c #37350a",
".H c #374518",
"#y c #37470a",
"bR c #375314",
"#u c #383835",
"ag c #383b14",
"#J c #384826",
".p c #38552d",
".T c #394535",
"aP c #3a2c1b",
"#Q c #3a2c23",
"#Y c #3b2423",
"#k c #3b2816",
"#h c #3b3315",
"#e c #3b332a",
"#b c #3b341c",
"af c #3b3424",
"#Z c #3b3a1c",
"av c #3b431c",
"bv c #3b4324",
"#a c #3b432b",
"#D c #3c3b24",
"at c #3c3b2b",
"bz c #3d3943",
"b. c #3f6242",
"bc c #432918",
"#K c #433423",
".w c #433b2a",
"#5 c #43432b",
"#M c #442a25",
".M c #444324",
".7 c #45381a",
"#o c #45561b",
".2 c #463a36",
".P c #464618",
"#c c #473826",
".F c #484736",
".x c #484828",
".i c #484844",
"ae c #485728",
"a# c #495737",
"aU c #495747",
".8 c #4a6429",
".X c #4a6736",
"bx c #4b2f0f",
"bJ c #4c7637",
"a0 c #4d3b47",
".0 c #4f5010",
"bd c #513632",
"bP c #517728",
"## c #526618",
"bp c #526b4e",
"a1 c #532a1a",
".9 c #544727",
"aT c #545155",
"#L c #55894b",
"aC c #564a37",
"ba c #564b46",
".1 c #565738",
"aK c #568a37",
".z c #57481a",
".y c #575828",
"#. c #586736",
"ac c #586929",
".v c #595a47",
"#9 c #596745",
".q c #597636",
".G c #597746",
"#d c #655828",
".j c #655a38",
"ao c #655a49",
"ax c #656658",
"ab c #65682a",
"#8 c #676948",
".3 c #676a38",
"#n c #677846",
"a9 c #677855",
".D c #67953a",
"#6 c #679654",
"#2 c #687737",
"b# c #687866",
".Y c #68792a",
".J c #688748",
"#O c #688839",
".a c #698758",
"#g c #699546",
"ar c #6a611a",
"aR c #6c5552",
".5 c #6d4f31",
".B c #6f736b",
".4 c #728a2c",
"bF c #728e6d",
"#B c #739984",
".r c #756738",
"bk c #756b57",
"ap c #75722a",
".A c #766a45",
".k c #767948",
".u c #767a57",
"aF c #76893a",
".l c #778757",
".N c #778849",
".I c #779648",
"bO c #77a457",
"bD c #77ab6b",
".s c #787838",
"#N c #789766",
"aE c #799658",
"#p c #7a9738",
"#z c #85863b",
"aL c #858847",
"#3 c #86734c",
".C c #869949",
"aa c #86a449",
".c c #86a558",
"#7 c #877535",
".d c #879559",
".e c #87a465",
"a2 c #889a66",
".K c #8b796c",
"#W c #8e9138",
".b c #90946b",
".# c #90b073",
"#f c #918d53",
"#r c #95b08e",
"#q c #96a55a",
"#A c #96ae51",
".Z c #979847",
"#C c #97a866",
".S c #9ca59a",
"bS c #9fcd95",
".U c #a38d5a",
".R c #a7b573",
"bN c #a8c671",
".Q c #abaf8f",
"bs c #adad52",
"#m c #c9cc67",
".6 c #cda757",
"a5 c #e8e9de",
"be c #f9faf4",
"bb c #fcfdfa",
"bm c #fefefe",
"QtQtQtQtQtQtQtQtQtQtQtQtQtQtQtQtQtQtQtQtQtQtQtQtQtQtQtQtQtQtQtQtQtQtQtQtQtQtQtQtQtQtQtQtQtQtQtQtQtQtQtQtQtQtQtQtQtQtQt",
"QtQtQtQtQtQtQtQtQtQtQtQtQtQtQtQtQtQtQtQtQtQtQtQtQtQtQtQtQtQtQtQtQtQtQtQtQtQtQtQtQtQtQtQtQtQtQtQtQtQtQtQtQtQtQtQtQtQtQt",
"QtQtQtQtQtQtQtQtQtQtQtQtQtQtQtQtQtQtQtQtQtQtQtQtQtQtQtQtQtQtQtQtQtQtQtQtQtQtQtQtQtQtQtQtQtQtQtQtQtQtQtQtQtQtQtQtQtQtQt",
"QtQtQtQtQtQtQtQtQtQtQtQtQtQtQtQtQtQtQtQtQtQtQtQtQtQtQtQtQtQtQtQtQtQtQtQtQtQtQtQtQtQtQtQtQtQtQtQtQtQtQtQtQtQtQtQtQtQtQt",
"QtQtQtQtQtQtQtQtQtQtQtQtQtQtQtQtQtQt.#.a.b.c.d.e.eQtQtQtQtQtQtQtQtQtQtQtQtQtQtQtQtQtQtQtQtQtQtQtQtQtQtQtQtQtQtQtQtQtQt",
"QtQtQtQtQtQtQtQtQtQtQtQtQtQtQtQtQtQt.f.g.h.i.j.k.lQtQtQtQtQtQtQtQtQtQtQtQtQtQtQtQtQtQtQtQtQtQtQtQtQtQtQtQtQtQtQtQtQtQt",
"QtQtQtQtQtQtQtQtQtQtQtQtQtQtQtQtQtQt.m.n.o.p.q.r.sQtQtQtQtQtQtQtQtQtQtQtQtQtQtQtQtQtQtQtQtQtQtQtQtQtQtQtQtQtQtQtQtQtQt",
"QtQtQtQtQtQtQtQtQtQtQtQtQtQtQtQtQt.t.u.v.w.x.y.z.AQtQtQtQtQtQtQtQtQtQtQtQtQtQtQtQtQtQtQtQtQtQtQtQtQtQtQtQtQtQtQtQtQtQt",
"QtQtQtQtQtQtQtQtQtQtQtQtQtQtQtQt.B.d.C.k.A.k.D.E.F.GQtQtQtQtQtQtQtQtQtQtQtQtQtQtQtQtQtQtQtQtQtQtQtQtQtQtQtQtQtQtQtQtQt",
"QtQtQtQtQtQtQtQtQtQtQtQtQtQtQtQtQtQt.H.a.I.J.K.L.M.NQtQtQtQtQtQtQtQtQtQtQtQtQtQtQtQtQtQtQtQtQtQtQtQtQtQtQtQtQtQtQtQtQt",
"QtQtQtQtQtQtQtQtQtQtQtQtQtQtQtQtQtQt.O.P.m.Q.R.S.T.UQtQtQtQtQtQtQtQtQtQtQtQtQtQtQtQtQtQtQtQtQtQtQtQtQtQtQtQtQtQtQtQtQt",
"QtQtQtQtQtQtQtQtQtQtQtQtQtQtQtQtQtQt.V.W.X.Y.Z.Q.0QtQtQtQtQtQtQtQtQtQtQtQtQtQtQtQtQtQtQtQtQtQtQtQtQtQtQtQtQtQtQtQtQtQt",
"QtQtQtQtQtQtQtQtQtQtQtQtQtQtQtQtQtQt.1.2.3.3.4.5.6QtQtQtQtQtQtQtQtQtQtQtQtQtQtQtQtQtQtQtQtQtQtQtQtQtQtQtQtQtQtQtQtQtQt",
"QtQtQtQtQtQtQtQtQtQtQtQtQtQtQtQtQtQt.7.8.9#.##.y.kQtQtQtQtQtQtQtQtQtQtQtQtQtQtQtQtQtQtQtQtQtQtQtQtQtQtQtQtQtQtQtQtQtQt",
"QtQtQtQtQtQtQtQtQtQtQtQtQtQtQtQt#a.m#b#c.z.7#d#e#fQtQt#gQtQtQtQtQtQtQtQtQtQtQtQtQtQtQtQtQtQtQtQtQtQtQtQtQtQtQtQtQtQtQt",
"QtQtQtQtQtQtQtQtQtQtQtQtQtQtQt#h#i#j#k.w.7#l#m#..##n#o#p#q#rQtQtQtQtQtQtQtQtQtQtQtQtQtQtQtQtQtQtQtQtQtQtQtQtQtQtQtQtQt",
"QtQtQtQtQtQtQtQtQtQtQtQtQt.T#s#t#u#v#w#x#y.z.x#z.U.I.P.Q#A#B#CQtQtQtQtQtQtQtQtQtQtQtQtQtQtQtQtQtQtQtQtQtQtQtQtQtQtQtQt",
"QtQtQtQtQtQtQtQtQtQtQt#a#D.2#E#F#G#H#j.n#I#h#J.Y#K#L#M#N#z#O.C#AQtQtQtQtQtQtQtQtQtQtQtQtQtQtQtQtQtQtQtQtQtQtQtQtQtQtQt",
"QtQtQtQtQtQtQtQtQtQt.E#J#P#Q.7#R#S.g#T.i.W#U.F.b#V#O#i.l.s#W#O#p#NQtQtQtQtQtQtQtQtQtQtQtQtQtQtQtQtQtQtQtQtQtQtQtQtQtQt",
"QtQtQtQtQtQtQtQtQtQt#X#Y#Z.W#l#0#1#X.N.k.1#2.A#3#4.k#a#5#6#7#8#9.Z.CQtQtQtQtQtQtQtQtQtQtQtQtQtQtQtQtQtQtQtQtQtQtQtQtQt",
"QtQtQtQtQtQtQtQtQt#J#e#P#P#E#la.#w#la#aa#o.rab#Dac.8#dad.P.j.Nae.F.N.aQtQtQtQtQtQtQtQtQtQtQtQtQtQtQtQtQtQtQtQtQtQtQtQt",
"QtQtQtQtQtQtQtQtaf.oag.M#hahaiajakal.H.Iam.A.janac#.ao#n.aap.s#baq.zarQtQtQtQtQtQtQtQtQtQtQtQtQtQtQtQtQtQtQtQtQtQtQtQt",
"QtQtQtQtQtQtQt.1.fas.x.tat.m#Zai#Z#wauavawaxay#.a##U.M.a.H#f.s#D.Gaz#9#NQtQtQtQtQtQtQtQtQtQtQtQtQtQtQtQtQtQtQtQtQtQtQt",
"QtQtQtQtQtQtQt#5.T.WaA#Q#aaz.2#Q#R#uaB.T.7#l#4##aC#V#K.#aD.1.3#taE#u.laFQtQtQtQtQtQtQtQtQtQtQtQtQtQtQtQtQtQtQtQtQtQtQt",
"QtQtQtQtQtQta#.TaG#H#k.x#PaH.t#Q.t.Wawaf.yaI.x#MaJ.paK.e#TaL.A#S.9.v#naca#QtQtQtQtQtQtQtQtQtQtQtQtQtQtQtQtQtQtQtQtQtQt",
"QtQtQtQtQtQt#c.taMai#HaN#a#0#jaOa#aPaQ.t#aaDaR#8an#9aS#CaT.j.1.Lao.G.FaE.NQtQtQtQtQtQtQtQtQtQtQtQtQtQtQtQtQtQtQtQtQtQt",
"QtQtQtQtQtaU.m#FaV#K#l#taWan#0.W#F.1.kafaX#y#M#2.f.F#v#O.e#t.kaYaZaL.9#Z#xQtQtQtQtQtQtQtQtQtQtQtQtQtQtQtQtQtQtQtQtQtQt",
"QtQtQtQt.ea0a1.maw#e.gad.L.O.f.m.xaE#na2a3#i.F.M.g.i.r.0aF.Oao#Sam.n.j.yavQtQtQtQtQtQtQtQtQtQtQtQtQtQtQtQtQtQtQtQtQtQt",
"QtQtQtQt#9#e#R.Fa4amaIQta5aDai#I#Ka6a7.ga8.m#Da.ai#taQa9aab..9.O#RaW#V.fb#QtQtQtQtQtQtQtQtQtQtQtQtQtQtQtQtQtQtQtQtQtQt",
"QtQtQtQtbaah.H#5aZau#uQtbb.L.Oa6#a#baz#Ybc#5.2.g#ZaM.0.M#r#cbd#0#o#FaK.1a#QtQtQtQtQtQtQtQtQtQtQtQtQtQtQtQtQtQtQtQtQtQt",
"QtQtQtQt.pa##Q#5#s.t#xQtbeaD#x.Ebcbdbfa.#S#x#ibg#j#S#o.y#p.3a6#x.W#..c.k.9QtQtQtQtQtQtQtQtQtQtQtQtQtQtQtQtQtQtQtQtQtQt",
"QtQtQtQtaQaGbhbiaJa4.tQtQtbd.Lbja#ajaO.V.O#w#1#SaO.naQ.7a2#7am.3.Nbk.H#H#rQtQtQtQtQtQtQtQtQtQtQtQtQtQtQtQtQtQtQtQtQtQt",
"QtQtQtQtQtat#D.g#G#Pbl#sbmbm.OaWbjbiaAad#UanaIbnboaOaqaf#R.Y.u.N.##.bpaE.QQtQtQtQtapQtQtQtQtQtQtQtQtQtQtQtQtQtQtQtQtQt",
"QtQtQtQtQta4#Z#R#F.FbqaJafa6#xa.br.i#xbraWbrawaZ#Y#Hba#5.V.Fbra7#Y.9#o.JQtQtQtQtbsQtQtQtQtQtQtQtQtQtQtQtQtQtQtQtQtQtQt",
"QtQtQtQtQtQtafa#.ybt.m#u.TaU.uakaDal#ta.buai.nbv#F#xaObw#Mbx#Ibca6#Y#u.x#e.wa4bya6#.QtQtQtQtQtQtQtQtQtQtQtQtQtQtQtQtQt",
"QtQtQtQtQtQtQtbva7bzat#5.A.x.VaR#Da6a7.Lam#UbAaIaWbf.ubB#u#XaD.KaW#xaW#4#4aHaAbC.OaTbz.FaXav##.z#ybDQtQtQtQtQtQtQtQtQt",
"QtQtQtQtQtQtQtQt.waQafavaf#ubz.TbE#K#5bFaBaO#Ibu#jboay.faW#e.f#ca9QtQtQtQtQtQtQt.rQtQtQtQtQtQtQtQtQtQtQtQtQtQtQtQtQtQt",
"QtQtQtQtQtQtQtQtbGbv.m#D#ba.#Vbh#Y#VaQ.m#u#jaY#i.1aI#U#waB.O#Sa#aF#z#pQtQtQtQtbmQtQtQtQtQtQtQtQtQtQtQtQtQtQtQtQtQtQtQt",
"QtQtQtQtQtQtQtQtQt#S#U#c#iaqaBbuaibc#Pbrbjaq.w#haWaWal#ebtaOaOaS#3bFapQtQtQtQtQtQtQtQtQtQtQtQtQtQtQtQtQtQtQtQtQtQtQtQt",
"QtQtQtQtQtQtQtQtQtQt.L#Y#0.ya.a.#0bubtaW#w#I.OaY#U.V#jbubwba.OaYa0bp.3QtQtQtQtQtQtQtQtQtQtQtQtQtQtQtQtQtQtQtQtQtQtQtQt",
"QtQtQtQtQtQtQtQtQtQtbjanaq#kajbHaybnbu#V#0#j#SaHamagaIaA#l.mao#2.ZbIbsQtQtQtQtQtQtQtQtQtQtQtQtQtQtQtQtQtQtQtQtQtQtQtQt",
"QtQtQtQtQtQtQtQtQtQta7#kaP.Obw#wbAby#lay#0ama.a.aWaPaN.zaW.5.Jas.Y.J#hQtQtQtQtQtQtQtQtQtQtQtQtQtQtQtQtQtQtQtQtQtQtQtQt",
"QtQtQtQtQtQtQtQtQtQtan#saq#YbH#U#R#ibh.Ta0aQaIaI.VaI#i#oaB#k.i#F#D.lbsQtQtQtQtQtQtQtQtQtQtQtQtQtQtQtQtQtQtQtQtQtQtQtQt",
"QtQtQtQtQtQtQtQtQtQtQtak#h#Vbfaz#KaJ#X#e#K.7#saz#4#ZaV#VbBbj.m.jbs#f#fQtQtQtQtQtQtQtQtQtQtQtQtQtQtQtQtQtQtQtQtQtQtQtQt",
"QtQtQtQtQtQtQtQtQtQtQtQtQtbG#cbr.tawaIaY#iaBaY#Uavbi.n#0.TaWbobJ.p.SQtQtQtQtQtQtQtQtQtQtQtQtQtQtQtQtQtQtQtQtQtQtQtQtQt",
"QtQtQtQtQtQtQtQtQtQtQtQtQt#0.favbC#J#YaIaI#0ahazbla6a0a#.NbKaO#oQtQtQtQtQtQtQtQtQtQtQtQtQtQtQtQtQtQtQtQtQtQtQtQtQtQtQt",
"QtQtQtQtQtQtQtQtQtQtQtQtQt.ma3akaP#0biahaA#ealbAaIa7bra8aEaFam.mQtQtQtQtQtQtQtQtQtQtQtQtQtQtQtQtQtQtQtQtQtQtQtQtQtQtQt",
"QtQtQtQtQtQtQtQtQtQtQtQtQt.Oasaf.7#vaz.g.g#V#Ga7#Uao.3.JaGaK.Fbj#BQtQtQtQtQtQtQtQtQtQtQtQtQtQtQtQtQtQtQtQtQtQtQtQtQtQt",
"QtQtQtQtQtQtQtQtQtQtQtQtQtaVaJaXaj#R#Daz#laY#xavaM#P.J#.aLaf.s#4.XQtQtQtQtQtQtQtQtQtQtQtQtQtQtQtQtQtQtQtQtQtQtQtQtQtQt",
"QtQtQtQtQtQtQtQtQtQtQtQtQt.V#KaP.h.Pan#H#R.ObjaJ#YblaH#6#3.J.8byanQtQtQtQtQtQtQtQtQtQtQtQtQtQtQtQtQtQtQtQtQtQtQtQtQtQt",
"QtQtQtQtQtQtQtQtQtQtQtQtQtbLbv#E.maz.m#YaBaYaYbM.MaJa#aN#n#2#.#yQtQtQtQtQtQtQtQtQtQtQtQtQtQtQtQtQtQtQtQtQtQtQtQtQtQtQt",
"QtQtQtQtQtQtQtQtQtQtQtQtQtQtaJ#JbAazaJ.n#x#vauaQ#P.p#naCbJ.JarbNQtQtQtQtQtQtQtQtQtQtQtQtQtQtQtQtQtQtQtQtQtQtQtQtQtQtQt",
"QtQtQtQtQtQtQtQtQtQtQtQtQtQtbM.wbf#s.nawakas#la7bwbv.4bO#xbObPQtQtQtQtQtQtQtQtQtQtQtQtQtQtQtQtQtQtQtQtQtQtQtQtQtQtQtQt",
"QtQtQtQtQtQtQtQtQtQtQtQtQtQtQtahbM.tbuaV#U.ObC.Maka4.p#g#..xQtQtQtQtQtQtQtQtQtQtQtQtQtQtQtQtQtQtQtQtQtQtQtQtQtQtQtQtQt",
"QtQtQtQtQtQtQtQtQtQtQtQtQtQtQt#S.m.f#s.nbAbnaJaf#y#k#J.h#6.qQtQtQtQtQtQtQtQtQtQtQtQtQtQtQtQtQtQtQtQtQtQtQtQtQtQtQtQtQt",
"QtQtQtQtQtQtQtQtQtQtQtQtQtQtQtaz#sbMaz#Sbf#S.w#F#cata8.1buaPQtQtQtQtQtQtQtQtQtQtQtQtQtQtQtQtQtQtQtQtQtQtQtQtQtQtQtQtQt",
"QtQtQtQtQtQtQtQtQtQtQtQtQtQtQt.xbLag#UaqaYbJ#D#lbq.taz.8#L#nQtQtQtQtQtQtQtQtQtQtQtQtQtQtQtQtQtQtQtQtQtQtQtQtQtQtQtQtQt",
"QtQtQtQtQtQtQtQtQtQtQtQtQtQtQt.H.taY#R#j.Oab#iau#iaI.q.xaK.IQtQtQtQtQtQtQtQtQtQtQtQtQtQtQtQtQtQtQtQtQtQtQtQtQtQtQtQtQt",
"QtQtQtQtQtQtQtQtQtQtQtQtQtQtQtbc#RaiaYauac#QaGbw#F#h.naT.x#9QtQtQtQtQtQtQtQtQtQtQtQtQtQtQtQtQtQtQtQtQtQtQtQtQtQtQtQtQt",
"QtQtQtQtQtQtQtQtQtQtQtQtQtQtQt#haPa8an#J.MaQbC.q#G#sai#O#n.XQtQtQtQtQtQtQtQtQtQtQtQtQtQtQtQtQtQtQtQtQtQtQtQtQtQtQtQtQt",
"QtQtQtQtQtQtQtQtQtQtQtQtQtQtQt#v.g#Faj#T#k#R#x#I#F#L#2#.aE.JQtQtQtQtQtQtQtQtQtQtQtQtQtQtQtQtQtQtQtQtQtQtQtQtQtQtQtQtQt",
"QtQtQtQtQtQtQtQtQtQtQtQtQtQtQta1.tai.h#H.La4aY#jahaZau#RbPQtQtQtQtQtQtQtQtQtQtQtQtQtQtQtQtQtQtQtQtQtQtQtQtQtQtQtQtQtQt",
"QtQtQtQtQtQtQtQtQtQtQtQtQtQtQtQtaI.2.oae#S.2#wbybA#F#v#PaKQtQtQtQtQtQtQtQtQtQtQtQtQtQtQtQtQtQtQtQtQtQtQtQtQtQtQtQtQtQt",
"QtQtQtQtQtQtQtQtQtQtQtQtQtQtQtaC.wa3#kaX.O.q#jaY#Uah#baM#gQtQtQtQtQtQtQtQtQtQtQtQtQtQtQtQtQtQtQtQtQtQtQtQtQtQtQtQtQtQt",
"QtQtQtQtQtQtQtQtQtQtQtQtQtQtQt#1a7bnanay.Oae.J.LaI#l#YawaKQtQtQtQtQtQtQtQtQtQtQtQtQtQtQtQtQtQtQtQtQtQtQtQtQtQtQtQtQtQt",
"QtQtQtQtQtQtQtQtQtQtQtQtQtQtQtbr#i.wajbLaz.f#O.MaYaIa3#sbPQtQtQtQtQtQtQtQtQtQtQtQtQtQtQtQtQtQtQtQtQtQtQtQtQtQtQtQtQtQt",
"QtQtQtQtQtQtQtQtQtQtQtQtQtQtQtQt.VagaYaiav#F.Ha9#w#4.VbGbJbsQtQtQtQtQtQtQtQtQtQtQtQtQtQtQtQtQtQtQtQtQtQtQtQtQtQtQtQtQt",
"QtQtQtQtQtQtQtQtQtQtQtQtQtQtQtQtbxaz.V#vbdbIag.JaCbo.t#P.XbOQtQtQtQtQtQtQtQtQtQtQtQtQtQtQtQtQtQtQtQtQtQtQtQtQtQtQtQtQt",
"QtQtQtQtQtQtQtQtQtQtQtQtQtQtQtQt.FbQbMan#ZaM.t#J#LazaP.7.G.cQtQtQtQtQtQtQtQtQtQtQtQtQtQtQtQtQtQtQtQtQtQtQtQtQtQtQtQtQt",
"QtQtQtQtQtQtQtQtQtQtQtQtQtQtQtQt.2aJbCaQbgaJ.hav.q#OaMbj.E.CQtQtQtQtQtQtQtQtQtQtQtQtQtQtQtQtQtQtQtQtQtQtQtQtQtQtQtQtQt",
"QtQtQtQtQtQtQtQtQtQtQtQtQtQtQtQtba#RaP#i.m#P.M#FbR.JaK.abd#OQtQtQtQtQtQtQtQtQtQtQtQtQtQtQtQtQtQtQtQtQtQtQtQtQtQtQtQtQt",
"QtQtQtQtQtQtQtQtQtQtQtQtQtQtQtQtQtQt.KaQ.T#l#Ebr#Hbu#Y#y.XbOQtQtQtQtQtQtQtQtQtQtQtQtQtQtQtQtQtQtQtQtQtQtQtQtQtQtQtQtQt",
"QtQtQtQtQtQtQtQtQtQtQtQtQtQtQtQtQtQtQt#x.O.1ay#xbubvboQtQtQtQtQtQtQtQtQtQtQtQtQtQtQtQtQtQtQtQtQtQtQtQtQtQtQtQtQtQtQtQt",
"QtQtQtQtQtQtQtQtQtQtQtQtQtQtQtQtQtQtQtaQ#D.l.bbl#8#cQtQtQtQtQtQtQtQtQtQtQtQtQtQtQtQtQtQtQtQtQtQtQtQtQtQtQtQtQtQtQtQtQt",
"QtQtQtQtQtQtQtQtQtQtQtQtQtQtQtQtQtQt.zboak#naU.Q.U.uQtQtQtQtQtQtQtQtQtQtQtQtQtQtQtQtQtQtQtQtQtQtQtQtQtQtQtQtQtQtQtQtQt",
"QtQtQtQtQtQtQtQtQtQtQtQtQtQtQtQtQtQt#EaG.1.Z.J#8#C.RQtQtQtQtQtQtQtQtQtQtQtQtQtQtQtQtQtQtQtQtQtQtQtQtQtQtQtQtQtQtQtQtQt",
"QtQtQtQtQtQtQtQtQtQtQtQtQtQtQtQtQt.saibp.aaU.j.1.raCQtQtQtQtQtQtQtQtQtQtQtQtQtQtQtQtQtQtQtQtQtQtQtQtQtQtQtQtQtQtQtQtQt",
"QtQtQtQtQtQtQtQtQtQtQtQtQtQtQtQt#3ba.1#9.SaL.j.a.I.#QtQtQtQtQtQtQtQtQtQtQtQtQtQtQtQtQtQtQtQtQtQtQtQtQtQtQtQtQtQtQtQtQt",
"QtQtQtQtQtQtQtQtQtQtQtQtQtQtQtQtbk#f#rQtbS#M.X.1aU.3#OQtQtQtQtQtQtQtQtQtQtQtQtQtQtQtQtQtQtQtQtQtQtQtQtQtQtQtQtQtQtQtQt",
"QtQtQtQtQtQtQtQtQtQtQtQtQtQtQtQtQtQtQtQtQtawba.Pbv.w.xQtQtQtQtQtQtQtQtQtQtQtQtQtQtQtQtQtQtQtQtQtQtQtQtQtQtQtQtQtQtQtQt",
"QtQtQtQtQtQtQtQtQtQtQtQtQtQtQtQtQtQtQtQtQta4bzai#0.wa#QtQtQtQtQtQtQtQtQtQtQtQtQtQtQtQtQtQtQtQtQtQtQtQtQtQtQtQtQtQtQtQt",
"QtQtQtQtQtQtQtQtQtQtQtQtQtQtQtQtQtQtQtQtQtao.2.i.w.5QtQtQtQtQtQtQtQtQtQtQtQtQtQtQtQtQtQtQtQtQtQtQtQtQtQtQtQtQtQtQtQtQt",
"QtQtQtQtQtQtQtQtQtQtQtQtQtQtQtQtQtQtQtQtQtQtQtQtQtQtQtQtQtQtQtQtQtQtQtQtQtQtQtQtQtQtQtQtQtQtQtQtQtQtQtQtQtQtQtQtQtQtQt",
"QtQtQtQtQtQtQtQtQtQtQtQtQtQtQtQtQtQtQtQtQtQtQtQtQtQtQtQtQtQtQtQtQtQtQtQtQtQtQtQtQtQtQtQtQtQtQtQtQtQtQtQtQtQtQtQtQtQtQt",
"QtQtQtQtQtQtQtQtQtQtQtQtQtQtQtQtQtQtQtQtQtQtQtQtQtQtQtQtQtQtQtQtQtQtQtQtQtQtQtQtQtQtQtQtQtQtQtQtQtQtQtQtQtQtQtQtQtQtQt",
"QtQtQtQtQtQtQtQtQtQtQtQtQtQtQtQtQtQtQtQtQtQtQtQtQtQtQtQtQtQtQtQtQtQtQtQtQtQtQtQtQtQtQtQtQtQtQtQtQtQtQtQtQtQtQtQtQtQtQt",
"QtQtQtQtQtQtQtQtQtQtQtQtQtQtQtQtQtQtQtQtQtQtQtQtQtQtQtQtQtQtQtQtQtQtQtQtQtQtQtQtQtQtQtQtQtQtQtQtQtQtQtQtQtQtQtQtQtQtQt"};
