/* XPM */
static char * 12_xpm[] = {
"51 71 204 2",
"  	c None",
". 	c #B6B6B7",
"+ 	c #717171",
"@ 	c #858585",
"# 	c #BDBDBE",
"$ 	c #AEAEB0",
"% 	c #B6B6B9",
"& 	c #707070",
"* 	c #4C4C4C",
"= 	c #7D7D7D",
"- 	c #9E9E9E",
"; 	c #939393",
"> 	c #6A6A6A",
", 	c #949494",
"' 	c #646464",
") 	c #787878",
"! 	c #808080",
"~ 	c #868686",
"{ 	c #979797",
"] 	c #969696",
"^ 	c #606060",
"/ 	c #3E3E3E",
"( 	c #404040",
"_ 	c #373737",
": 	c #3D3D3D",
"< 	c #2F2F2F",
"[ 	c #343434",
"} 	c #1D1D1D",
"| 	c #5B5B5B",
"1 	c #4F4F4F",
"2 	c #8B8B8C",
"3 	c #C5C5C6",
"4 	c #B1B1B1",
"5 	c #525252",
"6 	c #5D5D5D",
"7 	c #323232",
"8 	c #747474",
"9 	c #C8C8C8",
"0 	c #484848",
"a 	c #656565",
"b 	c #3A3A3A",
"c 	c #4D4D4D",
"d 	c #9A9A9A",
"e 	c #696969",
"f 	c #6D6D6D",
"g 	c #898989",
"h 	c #6E6E6E",
"i 	c #595959",
"j 	c #989898",
"k 	c #393939",
"l 	c #5F5F5F",
"m 	c #8F8F8F",
"n 	c #9B9B9B",
"o 	c #888888",
"p 	c #616161",
"q 	c #9D9D9D",
"r 	c #919191",
"s 	c #828282",
"t 	c #737373",
"u 	c #505050",
"v 	c #626262",
"w 	c #535353",
"x 	c #8B8B8B",
"y 	c #666666",
"z 	c #A0A0A0",
"A 	c #B8B8B8",
"B 	c #727272",
"C 	c #929292",
"D 	c #D2D2D2",
"E 	c #CDCDCD",
"F 	c #B9B9B9",
"G 	c #6B6B6B",
"H 	c #474747",
"I 	c #585858",
"J 	c #777777",
"K 	c #7E7E7E",
"L 	c #5C5C5C",
"M 	c #CECECE",
"N 	c #D7D7D7",
"O 	c #C0C0C0",
"P 	c #878787",
"Q 	c #464646",
"R 	c #BFBFC2",
"S 	c #AFAFB0",
"T 	c #646465",
"U 	c #434343",
"V 	c #545454",
"W 	c #7F7F7F",
"X 	c #C2C2C2",
"Y 	c #D9D9D9",
"Z 	c #BDBDBD",
"` 	c #8E8E8E",
" .	c #4E4E4E",
"..	c #A2A2A2",
"+.	c #6C6C6C",
"@.	c #7C7C7C",
"#.	c #D8D8D8",
"$.	c #C7C7C7",
"%.	c #A9A9A9",
"&.	c #353535",
"*.	c #4B4B4B",
"=.	c #A3A3A3",
"-.	c #E4E4E5",
";.	c #E1E1E1",
">.	c #B7B7B7",
",.	c #9F9F9F",
"'.	c #636363",
").	c #2B2B2B",
"!.	c #2A2A2A",
"~.	c #555555",
"{.	c #8A8A8A",
"].	c #D8D8D9",
"^.	c #DADADA",
"/.	c #B0B0B0",
"(.	c #A5A5A5",
"_.	c #7B7B7B",
":.	c #515151",
"<.	c #252525",
"[.	c #272727",
"}.	c #4A4A4A",
"|.	c #ADADAE",
"1.	c #212121",
"2.	c #222222",
"3.	c #D1D1D1",
"4.	c #C9C9C9",
"5.	c #AEAEAE",
"6.	c #5A5A5A",
"7.	c #3F3F3F",
"8.	c #575757",
"9.	c #303030",
"0.	c #A1A1A1",
"a.	c #B3B3B3",
"b.	c #CACACA",
"c.	c #D6D6D6",
"d.	c #BCBCBC",
"e.	c #999999",
"f.	c #5E5E5E",
"g.	c #909090",
"h.	c #3C3C3C",
"i.	c #9C9C9D",
"j.	c #C6C6C6",
"k.	c #B6B6B6",
"l.	c #A8A8A8",
"m.	c #BFBFBF",
"n.	c #DBDBDD",
"o.	c #DEDEE0",
"p.	c #D4D4D4",
"q.	c #C3C3C3",
"r.	c #B2B2B2",
"s.	c #BEBEBE",
"t.	c #797979",
"u.	c #3B3B3B",
"v.	c #676767",
"w.	c #242424",
"x.	c #B5B5B5",
"y.	c #AFAFAF",
"z.	c #414141",
"A.	c #ADADAD",
"B.	c #686868",
"C.	c #454545",
"D.	c #C4C4C4",
"E.	c #8D8D8D",
"F.	c #565656",
"G.	c #767676",
"H.	c #ABABAB",
"I.	c #2E2E2E",
"J.	c #2D2D2D",
"K.	c #A6A6A6",
"L.	c #838383",
"M.	c #292929",
"N.	c #494949",
"O.	c #7A7A7A",
"P.	c #8C8C8C",
"Q.	c #202020",
"R.	c #262626",
"S.	c #282828",
"T.	c #363636",
"U.	c #1E1E1E",
"V.	c #5C5C5E",
"W.	c #424242",
"X.	c #2C2C2C",
"Y.	c #A0A0A3",
"Z.	c #1F1F1F",
"`.	c #1B1B1B",
" +	c #181818",
".+	c #AAAAAA",
"++	c #444444",
"@+	c #191919",
"#+	c #171717",
"$+	c #959595",
"%+	c #9C9C9C",
"&+	c #818181",
"*+	c #161616",
"=+	c #6F6F6F",
"-+	c #383838",
";+	c #232323",
">+	c #BABABA",
",+	c #333333",
"'+	c #B4B4B4",
")+	c #757575",
"!+	c #B0B0B2",
"~+	c #313131",
"{+	c #C9C9CC",
"]+	c #C1C1C1",
"                                                                                                      ",
"                                                                                                      ",
"                                                                            .                         ",
"                                                                        + @ # $ %                     ",
"                                                                      & * = - ; > =                   ",
"                                                                    , ' ) ! ~ , { ] ,                 ",
"                                                                  ^ / / ( _ : < [ } | 1               ",
"                                                                      2 3 , 4 5 6 7                   ",
"                                                                      8 - 9 ! 0 a b                   ",
"                                                                      c 8 d e f g h         i         ",
"                                                                        j e k l m n o       p         ",
"                                                                          ! / l j q r s ! t u         ",
"                                                                          v w 4 x r y z A B < v       ",
"                                                                        e p C o o e @ D E F G :       ",
"                                                                        H I J K L u + M N O P Q t     ",
"                                                                    R S T U V W 0 G X Y Z n `  .V     ",
"                                                                    6 B ..m a +.@.Z #.$.j - %. .      ",
"                                                                    &.*.u h h =.M -.;.N >.F ,. .      ",
"                                                                  '.).!.< ~.{.].^./., & L (._.:.      ",
"                                                                  Q <.[.}.B z |.,.=.r w G W / 5       ",
"                                                                  1.2.i ] A 3.4.5.) 6.L g I < 7.      ",
"                                                                8.9.f 0.a.b.c.d.e.f.h g.8 9.h.7.      ",
"                                                              i.q t (.j.k.a.a.; ~.7.l.{ '.} *         ",
"                                                      l ~ m.n.o.p.q.r.s.g.t.i u.k Q v.g  .w.*         ",
"                                              g 6 | L t.x.A x.s.>.F y./.r c z.z.7.5 v i  .<.7.        ",
"                                  , m G ) (.A O z A.d.o a ; P @.l B.'.8.u.C.y.a.a j q v.{ 1.H         ",
"                  D.A.E.@ t F.u p 0 c G.8.K =.(.H.; x i z.E.r a 1 C./ I.J.* e.%.s K.H.L.x M.H         ",
"      I   & 8 | ' 1 6.B._.G.= y N.a +.N.l O.P.K w !.Q.&.8.i 1 u.< R.1.S.p u s , {.K P g.G.J           ",
"    :.S.t       l : G ~                           w.w.0     _ S.T.U.R.[ V U i e L.G v.8 8 {.4         ",
"                    V.                            W.U.V           [ <.w.S.X.V O.e.q @.- t | 0.        ",
"                      !                           V [.*           S.U.2.U.[.c o o ~ ) 0.! w           ",
"                              Y.                  8 B.C.        f.!.Z.`. +Z.:._._.` n l...8.          ",
"                                          m P ; y..+K.) < +._.  ++[.Q.} } U.C.t.u y L.{.E.G           ",
"                                                                  : } @+} 2.*.G.+.a G.@.P B           ",
"                                                                  ++} #+w.< f.& ! P $+%+&+G           ",
"                                                                  J.} *+).U 6 G t.&+8 V I             ",
"                                                                  * Z.`.7 > j n =.J i L               ",
"                                                                  Q 2.[.C.] A %.r =+F.a               ",
"                                                                  -+;+X.e A.>+K.8 W z.                ",
"                                                                  c ,+z.s >.A P G @.G                 ",
"                                                                    W.V ; '+e.h &+7.                  ",
"                                                                    -+y %+q t G + e                   ",
"                                                                    N.=+{ ) f.' z.                    ",
"                                                                    Q t.$+v Q z.1                     ",
"                                                                    h.W t.1 + ^ w                     ",
"                                                                  f.W.t )+^ H ^ y                     ",
"                                                                  c *.' p :.p a +.                    ",
"                                                                  z.0 1 5 V 6 8 x                     ",
"                                                                  f.W.* u :.++5 {.r.                  ",
"                                                                    0 W.V B.b 1 r !+                  ",
"                                                                    F.f.t.&+H  .g (.                  ",
"                                                                    u  .f m 5 W.' !                   ",
"                                                                    1 w t g.| ( 6 y                   ",
"                                                                    ,+++l _.6.-+' &                   ",
"                                                                    ( ( I 8 @.,+* h                   ",
"                                                                    F.!.C.p   u u t.                  ",
"                                                                      ).-+V   v.++t                   ",
"                                                                      ;+&.'.    7.6                   ",
"                                                                      U.X.p   +.z.8.                  ",
"                                                                      Q.J.^ y N.V f.{.                ",
"                                                                      2.~+w Q 1 ^ _.(.                ",
"                                                                     .Z.z.p L ~.8.> H                 ",
"                                  {+X >+r.Z d.4 a..+        s =+E.W -+( B.@.y   m @                   ",
"                                    4 r.]+5.0.g.! {.O._.@.+ +.+.x ( ( ' G.s ~                         ",
"                                        K.0.z P @.&+O.f 8 =+6 v.'.N.6.f f u *                         ",
"                                                g.P.t 8 J f p F./ F.& C.h.                            ",
"                                                        , s ^ y G | F.                                ",
"                                                            }.W. .                                    ",
"                                                                                                      ",
"                                                                                                      ",
"                                                                                                      "};
